<mxfile host="Electron" modified="2023-05-15T12:09:57.897Z" agent="Mozilla/5.0 (Windows NT 10.0; Win64; x64) AppleWebKit/537.36 (KHTML, like Gecko) draw.io/21.2.1 Chrome/112.0.5615.87 Electron/24.1.2 Safari/537.36" etag="DVa7wHpKQKREVmUoupXH" version="21.2.1" type="device">
  <diagram name="Page-1" id="13e1069c-82ec-6db2-03f1-153e76fe0fe0">
    <mxGraphModel dx="911" dy="592" grid="1" gridSize="10" guides="1" tooltips="1" connect="1" arrows="1" fold="1" page="1" pageScale="1" pageWidth="1100" pageHeight="850" background="none" math="0" shadow="0">
      <root>
        <mxCell id="0" />
        <mxCell id="1" parent="0" />
        <mxCell id="7baba1c4bc27f4b0-4" value="&lt;b style=&quot;font-size: 18px;&quot;&gt;&lt;font color=&quot;#333333&quot;&gt;浏览器&lt;br&gt;Client&lt;/font&gt;&lt;/b&gt;" style="shape=umlLifeline;perimeter=lifelinePerimeter;whiteSpace=wrap;html=1;container=1;collapsible=0;recursiveResize=0;outlineConnect=0;rounded=1;shadow=0;comic=0;labelBackgroundColor=none;strokeWidth=2;fontFamily=Verdana;fontSize=12;align=center;size=60;strokeColor=#333333;" parent="1" vertex="1">
          <mxGeometry x="500" y="80" width="140" height="590" as="geometry" />
        </mxCell>
        <mxCell id="7baba1c4bc27f4b0-16" value="" style="html=1;points=[];perimeter=orthogonalPerimeter;rounded=0;shadow=0;comic=0;labelBackgroundColor=none;strokeWidth=2;fontFamily=Verdana;fontSize=12;align=center;" parent="7baba1c4bc27f4b0-4" vertex="1">
          <mxGeometry x="70" y="110" width="10" height="160" as="geometry" />
        </mxCell>
        <mxCell id="ha-g9G0P4-oRpcM67HsS-12" value="" style="html=1;points=[];perimeter=orthogonalPerimeter;rounded=0;shadow=0;comic=0;labelBackgroundColor=none;strokeWidth=2;fontFamily=Verdana;fontSize=12;align=center;" parent="7baba1c4bc27f4b0-4" vertex="1">
          <mxGeometry x="70" y="400" width="10" height="160" as="geometry" />
        </mxCell>
        <mxCell id="7baba1c4bc27f4b0-20" value="&lt;b&gt;&lt;font color=&quot;#333333&quot; style=&quot;font-size: 15px;&quot;&gt;客户端登录：提交账号与密码&lt;/font&gt;&lt;/b&gt;" style="html=1;verticalAlign=bottom;endArrow=block;labelBackgroundColor=none;fontFamily=Verdana;fontSize=12;edgeStyle=elbowEdgeStyle;elbow=vertical;strokeWidth=2;strokeColor=#3333FF;" parent="1" edge="1">
          <mxGeometry x="0.0029" y="2" relative="1" as="geometry">
            <mxPoint x="580" y="202" as="sourcePoint" />
            <mxPoint x="919" y="202" as="targetPoint" />
            <mxPoint as="offset" />
          </mxGeometry>
        </mxCell>
        <mxCell id="7baba1c4bc27f4b0-36" value="&lt;p style=&quot;line-height: 110%;&quot;&gt;&lt;span style=&quot;font-size: 14px;&quot;&gt;&lt;b style=&quot;&quot;&gt;&lt;font color=&quot;#006633&quot;&gt;将Token存储到LocalStorage&lt;/font&gt;&lt;/b&gt;&lt;/span&gt;&lt;/p&gt;&lt;p style=&quot;line-height: 110%;&quot;&gt;&lt;span style=&quot;font-size: 14px;&quot;&gt;&lt;b style=&quot;&quot;&gt;&lt;font color=&quot;#006633&quot;&gt;或SessionStorage&lt;/font&gt;&lt;/b&gt;&lt;/span&gt;&lt;/p&gt;" style="html=1;verticalAlign=bottom;endArrow=block;labelBackgroundColor=none;fontFamily=Verdana;fontSize=12;elbow=vertical;edgeStyle=orthogonalEdgeStyle;curved=1;entryX=-0.145;entryY=1.008;entryDx=0;entryDy=0;entryPerimeter=0;strokeWidth=2;" parent="1" target="7baba1c4bc27f4b0-34" edge="1">
          <mxGeometry x="0.3776" y="-110" relative="1" as="geometry">
            <mxPoint x="569" y="350" as="sourcePoint" />
            <mxPoint x="470" y="310" as="targetPoint" />
            <Array as="points">
              <mxPoint x="510" y="350" />
              <mxPoint x="510" y="421" />
            </Array>
            <mxPoint x="-110" y="-101" as="offset" />
          </mxGeometry>
        </mxCell>
        <mxCell id="ha-g9G0P4-oRpcM67HsS-1" value="&lt;b style=&quot;font-size: 18px;&quot;&gt;&lt;font color=&quot;#333333&quot;&gt;浏览器&lt;br&gt;Client&lt;/font&gt;&lt;/b&gt;" style="shape=umlLifeline;perimeter=lifelinePerimeter;whiteSpace=wrap;html=1;container=1;collapsible=0;recursiveResize=0;outlineConnect=0;rounded=1;shadow=0;comic=0;labelBackgroundColor=none;strokeWidth=2;fontFamily=Verdana;fontSize=12;align=center;size=60;strokeColor=#333333;" parent="1" vertex="1">
          <mxGeometry x="860" y="80" width="140" height="590" as="geometry" />
        </mxCell>
        <mxCell id="ha-g9G0P4-oRpcM67HsS-2" style="edgeStyle=orthogonalEdgeStyle;rounded=0;orthogonalLoop=1;jettySize=auto;html=1;curved=1;" parent="ha-g9G0P4-oRpcM67HsS-1" source="7baba1c4bc27f4b0-19" target="ha-g9G0P4-oRpcM67HsS-1" edge="1">
          <mxGeometry relative="1" as="geometry">
            <Array as="points">
              <mxPoint x="120" y="160" />
              <mxPoint x="120" y="160" />
            </Array>
          </mxGeometry>
        </mxCell>
        <mxCell id="7baba1c4bc27f4b0-19" value="" style="html=1;points=[];perimeter=orthogonalPerimeter;rounded=0;shadow=0;comic=0;labelBackgroundColor=none;strokeWidth=2;fontFamily=Verdana;fontSize=12;align=center;" parent="ha-g9G0P4-oRpcM67HsS-1" vertex="1">
          <mxGeometry x="60" y="110" width="10" height="80" as="geometry" />
        </mxCell>
        <mxCell id="7baba1c4bc27f4b0-35" value="&lt;b&gt;&lt;font style=&quot;font-size: 14px;&quot;&gt;验证账号和密码&lt;/font&gt;&lt;/b&gt;" style="html=1;verticalAlign=bottom;endArrow=block;labelBackgroundColor=none;fontFamily=Verdana;fontSize=12;elbow=vertical;edgeStyle=orthogonalEdgeStyle;entryX=1.073;entryY=0.018;entryPerimeter=0;entryDx=0;entryDy=0;strokeWidth=2;curved=1;" parent="ha-g9G0P4-oRpcM67HsS-1" edge="1">
          <mxGeometry x="0.1068" y="60" relative="1" as="geometry">
            <mxPoint x="71" y="114" as="sourcePoint" />
            <mxPoint x="70.73000000000002" y="187.44000000000005" as="targetPoint" />
            <Array as="points">
              <mxPoint x="120" y="114" />
              <mxPoint x="120" y="187" />
            </Array>
            <mxPoint as="offset" />
          </mxGeometry>
        </mxCell>
        <mxCell id="ha-g9G0P4-oRpcM67HsS-8" value="" style="html=1;points=[];perimeter=orthogonalPerimeter;rounded=0;shadow=0;comic=0;labelBackgroundColor=none;strokeWidth=2;fontFamily=Verdana;fontSize=12;align=center;" parent="ha-g9G0P4-oRpcM67HsS-1" vertex="1">
          <mxGeometry x="60" y="190" width="10" height="80" as="geometry" />
        </mxCell>
        <mxCell id="ha-g9G0P4-oRpcM67HsS-13" value="" style="html=1;points=[];perimeter=orthogonalPerimeter;rounded=0;shadow=0;comic=0;labelBackgroundColor=none;strokeWidth=2;fontFamily=Verdana;fontSize=12;align=center;" parent="ha-g9G0P4-oRpcM67HsS-1" vertex="1">
          <mxGeometry x="60" y="400" width="10" height="80" as="geometry" />
        </mxCell>
        <mxCell id="ha-g9G0P4-oRpcM67HsS-14" value="&lt;p style=&quot;line-height: 101%;&quot;&gt;&lt;font color=&quot;#ff0000&quot;&gt;&lt;span style=&quot;font-size: 14px;&quot;&gt;&lt;b&gt;服务器把Token字符串还原成用户的信息对象&lt;/b&gt;&lt;/span&gt;&lt;/font&gt;&lt;/p&gt;" style="html=1;verticalAlign=bottom;endArrow=block;labelBackgroundColor=none;fontFamily=Verdana;fontSize=12;elbow=vertical;edgeStyle=orthogonalEdgeStyle;entryX=1.073;entryY=0.018;entryPerimeter=0;entryDx=0;entryDy=0;strokeWidth=2;curved=1;" parent="ha-g9G0P4-oRpcM67HsS-1" edge="1">
          <mxGeometry x="0.2233" y="150" relative="1" as="geometry">
            <mxPoint x="71" y="404" as="sourcePoint" />
            <mxPoint x="70.73000000000002" y="477.44000000000005" as="targetPoint" />
            <Array as="points">
              <mxPoint x="120" y="404" />
              <mxPoint x="120" y="477" />
            </Array>
            <mxPoint as="offset" />
          </mxGeometry>
        </mxCell>
        <mxCell id="ha-g9G0P4-oRpcM67HsS-15" value="" style="html=1;points=[];perimeter=orthogonalPerimeter;rounded=0;shadow=0;comic=0;labelBackgroundColor=none;strokeWidth=2;fontFamily=Verdana;fontSize=12;align=center;" parent="ha-g9G0P4-oRpcM67HsS-1" vertex="1">
          <mxGeometry x="60" y="480" width="10" height="80" as="geometry" />
        </mxCell>
        <mxCell id="ha-g9G0P4-oRpcM67HsS-16" value="&lt;p style=&quot;line-height: 80%;&quot;&gt;&lt;span style=&quot;font-size: 14px;&quot;&gt;&lt;b style=&quot;&quot;&gt;用户的身份认证成功后，服务器针对当前用户&lt;/b&gt;&lt;/span&gt;&lt;br&gt;&lt;/p&gt;&lt;p style=&quot;line-height: 80%;&quot;&gt;&lt;span style=&quot;font-size: 14px;&quot;&gt;&lt;b style=&quot;&quot;&gt;生成特定的响应内容&lt;/b&gt;&lt;/span&gt;&lt;/p&gt;" style="html=1;verticalAlign=bottom;endArrow=block;labelBackgroundColor=none;fontFamily=Verdana;fontSize=12;elbow=vertical;edgeStyle=orthogonalEdgeStyle;entryX=1.073;entryY=0.018;entryPerimeter=0;entryDx=0;entryDy=0;strokeWidth=2;curved=1;exitX=1;exitY=0.073;exitDx=0;exitDy=0;exitPerimeter=0;" parent="ha-g9G0P4-oRpcM67HsS-1" edge="1">
          <mxGeometry x="0.4276" y="-151" relative="1" as="geometry">
            <mxPoint x="70" y="482.84000000000003" as="sourcePoint" />
            <mxPoint x="70" y="556" as="targetPoint" />
            <Array as="points">
              <mxPoint x="119" y="483" />
              <mxPoint x="119" y="556" />
            </Array>
            <mxPoint x="151" y="151" as="offset" />
          </mxGeometry>
        </mxCell>
        <mxCell id="7baba1c4bc27f4b0-34" value="" style="html=1;points=[];perimeter=orthogonalPerimeter;rounded=0;shadow=0;comic=0;labelBackgroundColor=none;strokeWidth=2;fontFamily=Verdana;fontSize=12;align=center;" parent="1" vertex="1">
          <mxGeometry x="570" y="350" width="10" height="70" as="geometry" />
        </mxCell>
        <mxCell id="ha-g9G0P4-oRpcM67HsS-9" value="&lt;p style=&quot;line-height: 110%;&quot;&gt;&lt;font color=&quot;#ff0000&quot;&gt;&lt;span style=&quot;font-size: 14px;&quot;&gt;&lt;b&gt;验证通过后，将用户的信息对象，经过加密之生成Token字符串&lt;/b&gt;&lt;/span&gt;&lt;/font&gt;&lt;/p&gt;" style="html=1;verticalAlign=bottom;endArrow=block;labelBackgroundColor=none;fontFamily=Verdana;fontSize=12;elbow=vertical;edgeStyle=orthogonalEdgeStyle;entryX=1.073;entryY=0.018;entryPerimeter=0;entryDx=0;entryDy=0;strokeWidth=2;curved=1;exitX=1;exitY=0.073;exitDx=0;exitDy=0;exitPerimeter=0;" parent="1" edge="1">
          <mxGeometry x="0.2407" y="211" relative="1" as="geometry">
            <mxPoint x="930" y="272.84000000000003" as="sourcePoint" />
            <mxPoint x="930" y="346" as="targetPoint" />
            <Array as="points">
              <mxPoint x="979" y="273" />
              <mxPoint x="979" y="346" />
            </Array>
            <mxPoint as="offset" />
          </mxGeometry>
        </mxCell>
        <mxCell id="ha-g9G0P4-oRpcM67HsS-10" style="rounded=0;orthogonalLoop=1;jettySize=auto;html=1;strokeWidth=2;strokeColor=#FF0000;" parent="1" source="ha-g9G0P4-oRpcM67HsS-8" edge="1">
          <mxGeometry relative="1" as="geometry">
            <mxPoint x="580" y="350" as="targetPoint" />
          </mxGeometry>
        </mxCell>
        <mxCell id="ha-g9G0P4-oRpcM67HsS-11" value="&lt;p style=&quot;line-height: 108%;&quot;&gt;&lt;b&gt;&lt;font color=&quot;#333333&quot; style=&quot;font-size: 15px;&quot;&gt;服务器响应：将生成的Token&lt;/font&gt;&lt;/b&gt;&lt;/p&gt;&lt;p style=&quot;line-height: 108%;&quot;&gt;&lt;b&gt;&lt;font color=&quot;#333333&quot; style=&quot;font-size: 15px;&quot;&gt;发送给客户端&lt;/font&gt;&lt;/b&gt;&lt;/p&gt;" style="text;html=1;strokeColor=none;fillColor=none;align=center;verticalAlign=middle;whiteSpace=wrap;rounded=0;" parent="1" vertex="1">
          <mxGeometry x="603" y="310" width="320" height="30" as="geometry" />
        </mxCell>
        <mxCell id="ha-g9G0P4-oRpcM67HsS-18" value="&lt;p style=&quot;line-height: 110%;&quot;&gt;&lt;font style=&quot;font-size: 16px;&quot;&gt;&lt;font style=&quot;font-size: 15px;&quot;&gt;&lt;b style=&quot;&quot;&gt;客户端再次发起请求时，通过请求头的&lt;/b&gt;&lt;/font&gt;&lt;/font&gt;&lt;/p&gt;&lt;p style=&quot;line-height: 110%;&quot;&gt;&lt;font style=&quot;font-size: 16px;&quot;&gt;&lt;font style=&quot;font-size: 15px;&quot;&gt;&lt;b style=&quot;&quot;&gt;Authorization&lt;/b&gt;&lt;/font&gt;&lt;/font&gt;&lt;b style=&quot;font-size: 15px; background-color: initial;&quot;&gt;字段，将Token发送给服务器&lt;/b&gt;&lt;/p&gt;" style="html=1;verticalAlign=bottom;endArrow=block;labelBackgroundColor=none;fontFamily=Verdana;fontSize=12;edgeStyle=elbowEdgeStyle;elbow=vertical;strokeWidth=2;strokeColor=#3333FF;" parent="1" edge="1">
          <mxGeometry x="-0.0029" y="-8" relative="1" as="geometry">
            <mxPoint x="581" y="492" as="sourcePoint" />
            <mxPoint x="920" y="492" as="targetPoint" />
            <mxPoint as="offset" />
          </mxGeometry>
        </mxCell>
        <mxCell id="ha-g9G0P4-oRpcM67HsS-19" style="rounded=0;orthogonalLoop=1;jettySize=auto;html=1;entryX=0.582;entryY=-0.021;entryDx=0;entryDy=0;entryPerimeter=0;strokeWidth=2;strokeColor=#FF0000;" parent="1" edge="1">
          <mxGeometry relative="1" as="geometry">
            <mxPoint x="920" y="640" as="sourcePoint" />
            <mxPoint x="579" y="639" as="targetPoint" />
          </mxGeometry>
        </mxCell>
        <mxCell id="ha-g9G0P4-oRpcM67HsS-20" value="&lt;p style=&quot;line-height: 110%;&quot;&gt;&lt;b&gt;&lt;font color=&quot;#333333&quot; style=&quot;font-size: 15px;&quot;&gt;服务器响应：把当前用户对应的页面内容&lt;/font&gt;&lt;/b&gt;&lt;/p&gt;&lt;p style=&quot;line-height: 110%;&quot;&gt;&lt;b&gt;&lt;font color=&quot;#333333&quot; style=&quot;font-size: 15px;&quot;&gt;响应给浏览器&lt;/font&gt;&lt;/b&gt;&lt;/p&gt;" style="text;html=1;strokeColor=none;fillColor=none;align=center;verticalAlign=middle;whiteSpace=wrap;rounded=0;" parent="1" vertex="1">
          <mxGeometry x="564.5" y="600" width="397" height="30" as="geometry" />
        </mxCell>
      </root>
    </mxGraphModel>
  </diagram>
</mxfile>
